<svg width="137" height="116" viewBox="0 0 137 116" fill="none" xmlns="http://www.w3.org/2000/svg">
<g clip-path="url(#clip0_9_78)">
<path opacity="0.11" d="M44.5317 110.454C32.7147 104.464 11.316 103.276 13.256 65.4309C15.196 27.5852 66.8928 26.328 72.8888 7.62053C78.8848 -11.0868 141.984 5.09517 104.646 51.2458C98.0344 59.4178 113.555 68.4907 110.839 83.3596C108.123 98.2286 56.3487 116.445 44.5317 110.454Z" fill="#2A94F4"/>
<path opacity="0.11" d="M67.5764 116C90.9337 116 109.869 113.089 109.869 109.499C109.869 105.909 90.9337 102.998 67.5764 102.998C44.2191 102.998 25.2842 105.909 25.2842 109.499C25.2842 113.089 44.2191 116 67.5764 116Z" fill="#2A94F4"/>
<path d="M99.5469 108.651H32.7699C31.3466 108.651 30.1928 107.497 30.1928 106.073V13.9822C30.1928 12.5585 31.3466 11.4044 32.7699 11.4044H99.5469C100.97 11.4044 102.124 12.5585 102.124 13.9822V106.073C102.124 107.497 100.97 108.651 99.5469 108.651Z" fill="#0B4870"/>
<path d="M96.3467 105.149H35.9702C34.5469 105.149 33.3931 103.995 33.3931 102.572V17.4837C33.3931 16.06 34.5469 14.9059 35.9702 14.9059H96.3466C97.7699 14.9059 98.9236 16.06 98.9236 17.4837V102.572C98.9238 103.995 97.77 105.149 96.3467 105.149Z" fill="#F7F7F7"/>
<path opacity="0.11" d="M42.0098 27.0648H51.1936V36.2512H42.0098V27.0648Z" fill="#2A94F4"/>
<path d="M41.5449 29.6822C42.011 29.9199 42.4423 30.1904 42.8628 30.471C43.2807 30.7539 43.6888 31.0462 44.0818 31.3525C44.8722 31.9611 45.6178 32.6119 46.3321 33.2918L44.747 33.4091C44.972 33.0506 45.2107 32.701 45.4625 32.3609C45.7085 32.023 45.9681 31.6965 46.2358 31.3762C46.7743 30.7382 47.3503 30.1297 47.9766 29.5684C48.6063 29.0103 49.2768 28.491 50.0065 28.0509C50.7409 27.6199 51.5232 27.2435 52.3676 27.0648C51.8268 27.7378 51.3209 28.3588 50.8249 28.9885L49.3613 30.8683C48.8762 31.4922 48.3885 32.114 47.898 32.7336L46.427 34.5732L45.6043 35.6019L44.8417 34.6906C44.2089 33.9343 43.607 33.1487 43.05 32.321C42.7694 31.9092 42.5038 31.4832 42.2481 31.048C41.9948 30.6104 41.7524 30.1627 41.5449 29.6822Z" fill="#FFBE55"/>
<path opacity="0.11" d="M42.0098 53.9916H51.1936V63.1779H42.0098V53.9916ZM42.0098 81.6043H51.1936V90.7906H42.0098V81.6043Z" fill="#2A94F4"/>
<path opacity="0.52" d="M55.3267 27.0648H91.3462V28.5439H55.3267V27.0648ZM55.3267 30.9185H91.3462V32.3976H55.3267V30.9185ZM71.0684 34.7721H91.3462V36.2512H55.3267V34.7721H71.0684ZM55.3267 53.9915H91.3462V55.4706H55.3267V53.9915ZM55.3267 57.8451H91.3462V59.3242H55.3267V57.8451ZM55.3267 61.6987H72.491V63.1778H55.3267V61.6987ZM55.3267 81.6043H91.3462V83.0834H55.3267V81.6043ZM55.3267 85.4578H89.8865V86.9369H55.3267V85.4578ZM55.3267 89.3114H91.3462V90.7905H55.3267V89.3114Z" fill="#2A94F4"/>
<path d="M82.0305 16.1459H50.2863V9.24086C50.2863 7.81718 51.44 6.66309 52.8633 6.66309H79.4534C80.8767 6.66309 82.0305 7.81718 82.0305 9.24086V16.1459Z" fill="#FFBE55"/>
<path d="M54.5136 94.5378H85.4244V113.348H54.5136V94.5378ZM85.4244 94.5378H54.5136L57.0464 88.8623H82.8917L85.4244 94.5378Z" fill="#FFBE55"/>
<path opacity="0.11" d="M54.5136 94.5378H85.4244V113.348H54.5136V94.5378Z" fill="#FFBE55"/>
<path d="M65.1738 62.7999C65.1738 62.7999 57.9559 70.9587 57.4395 73.6891C56.9231 76.4195 63.9809 88.4875 63.9809 88.4875L60.7015 90.7739L67.2459 90.1481C67.2459 90.1481 64.4917 80.1296 62.9263 76.7178C65.0317 75.2898 70.1032 69.7003 70.1032 69.7003L74.8073 80.6638L76.8351 93.1915L82.2716 94.7919L79.0979 91.3475C79.6603 82.1398 79.6499 82.1377 80.0615 79.3231C80.455 76.6325 78.1214 66.8734 77.4326 63.7633C76.7438 60.6533 67.2093 61.5199 65.1738 62.7999Z" fill="#0E538C"/>
<path d="M63.5364 38.3631C63.6333 38.7308 65.9228 48.3914 65.9228 48.3914C65.9228 48.3914 63.8419 49.4104 62.9782 48.244C62.1146 47.0775 61.8257 38.2413 61.8257 38.2413L63.5364 38.3631Z" fill="#FCD2B1"/>
<path d="M63.1637 36.4498C63.1637 36.4498 61.9047 35.3627 61.5147 36.1785C61.1247 36.9944 61.8118 37.8622 61.8258 38.2414C61.8398 38.6205 63.5364 38.3632 63.5364 38.3632C63.5364 38.3632 63.9721 37.129 63.1637 36.4498Z" fill="#FCD2B1"/>
<path d="M63.9533 38.0531L50.6257 33.0641C50.6257 33.0641 49.4267 34.4023 49.85 36.0017L63.3684 39.0827C63.3684 39.0827 64.0801 39.258 63.9533 38.0531Z" fill="#FFBE55"/>
<path d="M71.5302 44.642L70.3669 47.7464C70.3669 47.7464 70.5091 49.2179 72.1188 49.2482C73.7285 49.2785 73.9965 48.3476 73.9965 48.3476L73.7309 44.6647C73.731 44.6648 72.218 44.2454 71.5302 44.642ZM61.3654 47.0509L59.7669 46.7325L58.5405 39.9933L60.064 38.3359L58.9676 38.0201C58.9676 38.0201 59.1851 36.663 59.0232 35.9633C58.8612 35.2638 58.4013 35.0873 57.2566 35.538C56.6532 35.8883 56.1763 38.0685 56.7495 39.3047C57.3227 40.5409 57.2656 48.3202 57.1467 49.5706C57.0277 50.8209 60.5081 51.6305 60.5081 51.6305C60.5081 51.6305 62.1731 51.8598 62.7178 50.1165C63.2626 48.3732 61.3654 47.0509 61.3654 47.0509Z" fill="#FCD2B1"/>
<path d="M71.7445 47.2096C70.4676 46.9564 68.9513 46.8468 67.2362 47.0592C64.17 47.1806 61.3654 47.051 61.3654 47.051C61.3654 47.051 60.1332 49.2005 60.5082 51.6305C60.5082 51.6305 63.564 53.4999 66.507 53.6176C66.8431 54.9979 66.3175 61.2422 65.1738 62.7998C66.0347 64.1365 73.2684 65.7152 77.4325 63.7632C78.1401 62.3877 77.4229 56.5255 76.8415 52.6328C76.4392 49.9382 74.4165 47.7396 71.7445 47.2096Z" fill="#FFBE55"/>
<path d="M71.0148 39.5495C71.0148 39.5495 68.7062 42.3728 68.9772 43.4573C69.2484 44.5418 70.5481 45.5509 73.6289 45.8929C74.6864 45.7344 75.8566 42.5755 75.8298 41.9145C75.6549 37.5884 72.1506 38.8198 71.0148 39.5495Z" fill="#FFE3CA"/>
<path d="M73.8913 41.1139C73.8913 41.1139 69.8595 40.4626 69.4669 38.4254C69.0744 36.3882 72.3653 35.3414 73.8244 35.9783C74.4459 36.2496 74.7598 36.7255 75.1254 37.2606C75.5365 37.8625 76.0459 38.0659 76.7021 38.4139C76.9133 38.5259 77.1257 38.6388 77.314 38.7861C78.3309 39.5822 77.97 40.5276 77.7983 41.5932C77.6334 42.617 77.4742 43.6705 76.8027 44.5039C75.6348 45.9529 73.6773 45.728 73.7313 44.6645C73.7851 43.6014 74.9775 41.3657 73.8913 41.1139ZM63.9809 88.4873C63.9809 88.4873 65.9504 88.4494 66.7001 88.2343C67.0359 89.3943 67.2459 90.1479 67.2459 90.1479L60.7015 90.7737L63.9809 88.4873ZM76.4842 90.8966C77.427 91.4425 79.098 91.3475 79.098 91.3475L82.2718 94.7917L76.8351 93.0646L76.4842 90.8966Z" fill="#0B4870"/>
<path d="M50.6257 33.0641L46.9561 33.2997L49.85 36.0017L50.6257 36.1785L49.8338 35.2079L51.0625 35.2726L50.1571 34.3023L51.5474 34.3346L50.4481 33.5908L51.6709 33.4554L50.6257 33.0641Z" fill="#FFE3CA"/>
<path d="M48.7634 33.1837C48.7634 33.1837 48.8197 34.2323 48.2435 34.5018L46.9561 33.2997L48.7634 33.1837Z" fill="#FFBE55"/>
<path d="M63.4142 37.8515C63.4142 37.8515 62.1612 38.1964 60.8032 37.7112C59.4452 37.2261 60.8757 35.6855 61.8257 35.7928C62.7757 35.9 64.0378 36.7519 63.4142 37.8515Z" fill="#FAB9AF"/>
</g>
<defs>
<clipPath id="clip0_9_78">
<rect width="137" height="116" fill="white"/>
</clipPath>
</defs>
</svg>
